<?xml version="1.0" encoding="UTF-8" standalone="no"?>
<!-- Created with Inkscape (http://www.inkscape.org/) -->

<svg
   xmlns:dc="http://purl.org/dc/elements/1.1/"
   xmlns:cc="http://creativecommons.org/ns#"
   xmlns:rdf="http://www.w3.org/1999/02/22-rdf-syntax-ns#"
   xmlns:svg="http://www.w3.org/2000/svg"
   xmlns="http://www.w3.org/2000/svg"
   xmlns:sodipodi="http://sodipodi.sourceforge.net/DTD/sodipodi-0.dtd"
   xmlns:inkscape="http://www.inkscape.org/namespaces/inkscape"
   id="svg5683"
   viewBox="0 0 52.964441 52.964439"
   sodipodi:version="0.32"
   version="1.0"
   inkscape:version="0.91 r"
   sodipodi:docname="emg.svg"
   width="52.964439"
   height="52.964439">
  <defs
     id="defs3">
    <linearGradient
       id="linearGradient5590"
       y2="387.44"
       gradientUnits="userSpaceOnUse"
       y1="369.98001"
       x2="332.01999"
       x1="314.57001"
       inkscape:collect="always">
      <stop
         id="stop4888"
         style="stop-color:#1c97e1"
         offset="0" />
      <stop
         id="stop4890"
         style="stop-color:#006798"
         offset="1" />
    </linearGradient>
    <linearGradient
       id="linearGradient6033"
       y2="390.78"
       gradientUnits="userSpaceOnUse"
       y1="377.95001"
       gradientTransform="matrix(1.9519,0,0,1.8418,-375.29,-700.33)"
       x2="311.26999"
       x1="302.73999"
       inkscape:collect="always">
      <stop
         id="stop4556"
         style="stop-color:#ffffff"
         offset="0" />
      <stop
         id="stop4558"
         style="stop-color:#ffffff;stop-opacity:0"
         offset="1" />
    </linearGradient>
  </defs>
  <sodipodi:namedview
     id="base"
     bordercolor="#666666"
     inkscape:window-x="0"
     inkscape:window-y="0"
     pagecolor="#ffffff"
     inkscape:zoom="8"
     inkscape:pageshadow="2"
     borderlayer="true"
     borderopacity="1.0"
     inkscape:current-layer="layer1"
     inkscape:cx="15.471818"
     inkscape:cy="15.039655"
     inkscape:window-width="1278"
     showborder="true"
     inkscape:pageopacity="0.0"
     inkscape:window-height="968"
     inkscape:document-units="px"
     showgrid="false"
     inkscape:window-maximized="0"
     fit-margin-top="0"
     fit-margin-left="0"
     fit-margin-right="0"
     fit-margin-bottom="0" />
  <g
     id="layer1"
     inkscape:label="Layer 1"
     inkscape:groupmode="layer"
     transform="translate(-215.5431,9.9766506)">
    <circle
       id="path5190"
       style="color:#000000;fill:#166496"
       transform="matrix(1.8961,0,0,1.8961,-375.29,-700.33)"
       cx="325.57108"
       cy="378.05789"
       r="13.966679" />
    <circle
       id="path5192"
       style="color:#000000;fill:url(#linearGradient5590);stroke:#ffffff;stroke-width:0.72205001"
       transform="matrix(1.7312,0,0,1.7312,-321.61,-638)"
       cx="325.57108"
       cy="378.05789"
       r="13.966679" />
    <path
       id="path5194"
       style="color:#000000;fill:url(#linearGradient6033)"
       d="m 241.99,-7.6747 c -13.34,0 -24.17,10.828 -24.17,24.175 0,6.413 2.62,12.143 6.7,16.472 2.11,-17.5 16.88,-31.107 34.95,-31.107 0.49,-2e-4 0.94,0.0988 1.43,0.1183 -4.43,-5.7506 -11.1,-9.658 -18.91,-9.658 z"
       inkscape:connector-curvature="0" />
    <text
       xml:space="preserve"
       style="font-style:normal;font-weight:normal;font-size:40px;line-height:125%;font-family:Sans;letter-spacing:0px;word-spacing:0px;fill:#000000;fill-opacity:1;stroke:none;stroke-width:1px;stroke-linecap:butt;stroke-linejoin:miter;stroke-opacity:1"
       x="222.33163"
       y="11.553802"
       id="text4147"
       sodipodi:linespacing="125%"><tspan
         sodipodi:role="line"
         id="tspan4149"
         x="222.33163"
         y="11.553802"
         style="font-style:normal;font-variant:normal;font-weight:normal;font-stretch:normal;font-size:15px;font-family:DIN-Bold;-inkscape-font-specification:DIN-Bold">sEMG</tspan></text>
    <path
       inkscape:connector-curvature="0"
       style="color:#000000;clip-rule:nonzero;display:inline;overflow:visible;visibility:visible;opacity:1;isolation:auto;mix-blend-mode:normal;color-interpolation:sRGB;color-interpolation-filters:linearRGB;solid-color:#000000;solid-opacity:1;fill:#ff0000;fill-opacity:1;fill-rule:nonzero;stroke:#ff0000;stroke-width:0.28703529;stroke-linecap:butt;stroke-linejoin:miter;stroke-miterlimit:4;stroke-dasharray:none;stroke-dashoffset:0;stroke-opacity:0.4405797;color-rendering:auto;image-rendering:auto;shape-rendering:auto;text-rendering:auto;enable-background:accumulate"
       d="m 241.21107,12.911775 a 0.42377434,0.42377434 0 0 0 -0.1332,0.27879 l -1.07438,15.162186 -0.1237,-0.843749 a 0.42377434,0.42377434 0 0 0 -0.41907,-0.362813 l -1.20093,0 -1.13343,-4.227187 a 0.42377434,0.42377434 0 0 0 -0.81845,0 l -1.18687,4.4325 -1.20938,0 a 0.42377434,0.42377434 0 0 0 -0.39938,0.284061 l -0.28687,0.829688 -0.35157,-0.902813 a 0.42377434,0.42377434 0 0 0 -0.39374,-0.27 l -4.79813,0 c -3.6e-4,-0.001 -0.001,-0.002 -0.001,-0.003 l -0.0496,0 0,0.846564 1.17246,0 0,0.003 3.38449,0 0.66375,1.707187 a 0.42377434,0.42377434 0 0 0 0.79593,-0.01411 l 0.56813,-1.634063 1.22907,0 a 0.42377434,0.42377434 0 0 0 0.41063,-0.312188 l 0.86343,-3.220312 0.80718,3.015 a 0.42377434,0.42377434 0 0 0 0.41063,0.315 l 1.15875,0 0.63281,4.359376 a 0.42377434,0.42377434 0 0 0 0.84094,-0.03094 l 0.97875,-13.806564 1.71,19.108123 a 0.42377434,0.42377434 0 0 0 0.84094,0.01968 l 1.32187,-9.424686 2.8575,0 a 0.42377434,0.42377434 0 0 0 0.36844,-0.213749 l 2.05313,-3.555 1.97719,3.422812 a 0.42377434,0.42377434 0 0 0 0.36562,0.210937 l 5.42251,0 c -1.9e-4,2.71e-4 -3.6e-4,4.32e-4 -7.2e-4,7.2e-4 l 0.23994,0 0,-0.847266 -5.41723,0 -2.22189,-3.8475 a 0.42377434,0.42377434 0 0 0 -0.73405,0 l -2.295,3.979688 -2.98687,0 a 0.42377434,0.42377434 0 0 0 -0.41908,0.365625 l -0.85776,6.125625 -1.85063,-20.680311 a 0.42377434,0.42377434 0 0 0 -0.13219,-0.270352 l -0.57831,0 z"
       id="rect4144" />
  </g>
  <metadata
     id="metadata19">
    <rdf:RDF>
      <cc:Work>
        <dc:format>image/svg+xml</dc:format>
        <dc:type
           rdf:resource="http://purl.org/dc/dcmitype/StillImage" />
        <cc:license
           rdf:resource="http://creativecommons.org/publicdomain/zero/1.0/" />
        <dc:publisher>
          <cc:Agent
             rdf:about="http://openclipart.org/">
            <dc:title>Openclipart</dc:title>
          </cc:Agent>
        </dc:publisher>
        <dc:title></dc:title>
        <dc:date>2006-12-21T11:14:06</dc:date>
        <dc:description>Four set of arrow buttons. In green, red, blue and yellow color.</dc:description>
        <dc:source>https://openclipart.org/detail/2209/arrow_button_set-by-kuba-2209</dc:source>
        <dc:creator>
          <cc:Agent>
            <dc:title>kuba</dc:title>
          </cc:Agent>
        </dc:creator>
        <dc:subject>
          <rdf:Bag>
            <rdf:li>arrow</rdf:li>
            <rdf:li>blue</rdf:li>
            <rdf:li>button</rdf:li>
            <rdf:li>green</rdf:li>
            <rdf:li>icon</rdf:li>
            <rdf:li>red</rdf:li>
            <rdf:li>yellow</rdf:li>
          </rdf:Bag>
        </dc:subject>
      </cc:Work>
      <cc:License
         rdf:about="http://creativecommons.org/publicdomain/zero/1.0/">
        <cc:permits
           rdf:resource="http://creativecommons.org/ns#Reproduction" />
        <cc:permits
           rdf:resource="http://creativecommons.org/ns#Distribution" />
        <cc:permits
           rdf:resource="http://creativecommons.org/ns#DerivativeWorks" />
      </cc:License>
    </rdf:RDF>
  </metadata>
</svg>
