<?xml version="1.0" encoding="UTF-8" standalone="no"?>
<!-- Created with Inkscape (http://www.inkscape.org/) -->

<svg
   xmlns:dc="http://purl.org/dc/elements/1.1/"
   xmlns:cc="http://creativecommons.org/ns#"
   xmlns:rdf="http://www.w3.org/1999/02/22-rdf-syntax-ns#"
   xmlns:svg="http://www.w3.org/2000/svg"
   xmlns="http://www.w3.org/2000/svg"
   xmlns:sodipodi="http://sodipodi.sourceforge.net/DTD/sodipodi-0.dtd"
   xmlns:inkscape="http://www.inkscape.org/namespaces/inkscape"
   width="25.829824mm"
   height="25.829824mm"
   viewBox="0 0 91.523 91.523"
   id="svg5490"
   version="1.1"
   inkscape:version="0.91 r"
   sodipodi:docname="icon_exame3.svg">
  <defs
     id="defs5492">
    <linearGradient
       id="linearGradient6033-5"
       y2="390.78"
       gradientUnits="userSpaceOnUse"
       y1="377.95001"
       gradientTransform="matrix(3.3728998,0,0,3.1826461,-718.15477,-854.90723)"
       x2="311.26999"
       x1="302.73999"
       inkscape:collect="always">
      <stop
         id="stop4556-8"
         style="stop-color:#ffffff"
         offset="0" />
      <stop
         id="stop4558-3"
         style="stop-color:#ffffff;stop-opacity:0"
         offset="1" />
    </linearGradient>
    <linearGradient
       gradientTransform="matrix(2.9915283,0,0,2.9915283,-625.39522,-747.20043)"
       id="linearGradient5590-8"
       y2="387.44"
       gradientUnits="userSpaceOnUse"
       y1="369.98001"
       x2="332.01999"
       x1="314.57001"
       inkscape:collect="always">
      <stop
         id="stop4888-6"
         style="stop-color:#1c97e1"
         offset="0" />
      <stop
         id="stop4890-2"
         style="stop-color:#006798"
         offset="1" />
    </linearGradient>
  </defs>
  <sodipodi:namedview
     id="base"
     pagecolor="#ffffff"
     bordercolor="#666666"
     borderopacity="1.0"
     inkscape:pageopacity="0.0"
     inkscape:pageshadow="2"
     inkscape:zoom="0.35"
     inkscape:cx="-640.66705"
     inkscape:cy="-102.80999"
     inkscape:document-units="px"
     inkscape:current-layer="layer1"
     showgrid="false"
     fit-margin-top="0"
     fit-margin-left="0"
     fit-margin-right="0"
     fit-margin-bottom="0"
     inkscape:window-width="1680"
     inkscape:window-height="1015"
     inkscape:window-x="0"
     inkscape:window-y="0"
     inkscape:window-maximized="1" />
  <metadata
     id="metadata5495">
    <rdf:RDF>
      <cc:Work
         rdf:about="">
        <dc:format>image/svg+xml</dc:format>
        <dc:type
           rdf:resource="http://purl.org/dc/dcmitype/StillImage" />
        <dc:title></dc:title>
      </cc:Work>
    </rdf:RDF>
  </metadata>
  <g
     inkscape:label="Layer 1"
     inkscape:groupmode="layer"
     id="layer1"
     transform="translate(-302.80991,-338.02921)">
    <circle
       id="path5190-3"
       style="color:#000000;fill:#166496"
       cx="348.57141"
       cy="383.79071"
       r="45.761501" />
    <circle
       id="path5192-6"
       style="color:#000000;fill:url(#linearGradient5590-8);stroke:#ffffff;stroke-width:2.16003299"
       cx="348.55988"
       cy="383.77045"
       r="41.781712" />
    <path
       style="fill:#000000"
       d="m 354.7727,344.86411 c -0.79646,0.094 -1.61828,0.7232 -2.8789,2.0449 -3.23935,3.3961 -5.94159,8.3042 -6.50196,11.8086 -0.56946,3.5612 -1.75402,0.5924 -1.58593,-3.9746 0.28697,-7.7975 0.2979,-7.6391 -0.62696,-8.6231 -1.10116,-1.1714 -2.59785,-1.1951 -3.73437,-0.059 -0.94384,0.9439 -1.03803,1.2631 -1.55664,5.3262 -0.85021,6.6608 -0.83934,7.5685 0.1211,11.2148 1.40828,5.3465 1.08426,9.4651 -0.40235,5.1172 -1.15036,-3.3643 -2.69339,-6.0551 -3.94922,-6.8867 -1.7233,-1.1411 -4.62695,-1.037 -4.62695,0.166 0,0.2925 0.30938,1.8244 0.6875,3.4043 0.37815,1.5799 0.66968,3.9324 0.64649,5.2285 -0.0382,2.1273 0.11844,2.6877 1.60742,5.7676 0.90721,1.8765 1.64834,3.6756 1.65234,3.998 0.008,1.2859 1.78777,4.2949 3.83594,6.4844 3.14978,3.3671 3.88179,5.7268 2.71484,8.7539 -1.70861,4.4322 -5.08435,14.4109 -6.38867,18.8867 -0.75282,2.5835 -1.59498,5.4364 -2.12109,7.2032 5.35445,2.402 11.15487,3.6491 17.02343,3.6601 2.18779,-0.01 4.37159,-0.1873 6.53125,-0.5371 l 0.0742,-1.9414 c 0.29174,-7.6571 0.87056,-14.7747 1.49804,-18.4004 0.47922,-2.769 1.12803,-4.893 3.25391,-10.6621 1.02535,-2.7825 1.45926,-5.9276 1.77344,-12.8418 0.1983,-4.3639 0.42661,-6.3135 0.83008,-7.084 0.87755,-1.6757 3.01114,-3.8735 6.45117,-6.6465 2.63973,-2.1279 3.19621,-2.7498 3.28711,-3.6757 0.31745,-3.2337 -2.70722,-3.4432 -6.16992,-0.4278 -0.61525,0.5358 -2.09264,1.4924 -3.28321,2.127 -1.19057,0.6345 -2.48513,1.604 -2.87695,2.1543 -1.15283,1.619 -1.48495,1.2666 -1.29492,-1.3809 0.20497,-2.855 0.99424,-4.5325 3.53711,-7.5156 2.6295,-3.0847 3.08779,-3.8774 3.09179,-5.3164 0.003,-2.2243 -2.07955,-3.2365 -4.02929,-1.959 -0.80375,0.5267 -4.39769,4.5673 -7.26563,8.168 -1.14069,1.4321 -2.11719,2.0242 -2.11719,1.2832 10e-6,-0.9877 1.29405,-3.6101 3.2793,-6.6426 1.24715,-1.905 2.37637,-3.8098 2.50977,-4.2324 0.31168,-0.9875 -0.57253,-3.1189 -1.5,-3.6153 -0.54956,-0.2941 -1.01822,-0.4315 -1.4961,-0.375 z"
       id="path6309"
       inkscape:connector-curvature="0"
       sodipodi:nodetypes="cssscsssscsccscsssccccssssssssccsccscscscc" />
    <path
       id="path5194-3"
       style="color:#000000;fill:url(#linearGradient6033-5)"
       d="m 348.51037,342.00701 c -23.05163,0 -41.76596,18.7109 -41.76596,41.7747 0,11.0817 4.52738,20.9832 11.57765,28.4637 3.6461,-30.2401 29.16879,-53.7532 60.3939,-53.7532 0.84672,-3e-4 1.62433,0.1708 2.47105,0.2045 -7.65508,-9.9371 -19.18089,-16.6891 -32.67664,-16.6891 z"
       inkscape:connector-curvature="0" />
  </g>
</svg>
