<?xml version="1.0" encoding="UTF-8" standalone="no"?>
<!-- Created with Inkscape (http://www.inkscape.org/) -->

<svg
   xmlns:dc="http://purl.org/dc/elements/1.1/"
   xmlns:cc="http://creativecommons.org/ns#"
   xmlns:rdf="http://www.w3.org/1999/02/22-rdf-syntax-ns#"
   xmlns:svg="http://www.w3.org/2000/svg"
   xmlns="http://www.w3.org/2000/svg"
   xmlns:sodipodi="http://sodipodi.sourceforge.net/DTD/sodipodi-0.dtd"
   xmlns:inkscape="http://www.inkscape.org/namespaces/inkscape"
   id="svg5683"
   viewBox="0 0 52.964441 52.964439"
   sodipodi:version="0.32"
   version="1.0"
   inkscape:version="0.91 r"
   sodipodi:docname="mainlogo.svg"
   width="52.964439"
   height="52.964439">
  <defs
     id="defs3">
    <linearGradient
       id="linearGradient5590"
       y2="387.44"
       gradientUnits="userSpaceOnUse"
       y1="369.98001"
       x2="332.01999"
       x1="314.57001"
       inkscape:collect="always">
      <stop
         id="stop4888"
         style="stop-color:#1c97e1"
         offset="0" />
      <stop
         id="stop4890"
         style="stop-color:#006798"
         offset="1" />
    </linearGradient>
    <linearGradient
       id="linearGradient6033"
       y2="390.78"
       gradientUnits="userSpaceOnUse"
       y1="377.95001"
       gradientTransform="matrix(1.9519,0,0,1.8418,-375.29,-700.33)"
       x2="311.26999"
       x1="302.73999"
       inkscape:collect="always">
      <stop
         id="stop4556"
         style="stop-color:#ffffff"
         offset="0" />
      <stop
         id="stop4558"
         style="stop-color:#ffffff;stop-opacity:0"
         offset="1" />
    </linearGradient>
  </defs>
  <sodipodi:namedview
     id="base"
     bordercolor="#666666"
     inkscape:window-x="0"
     inkscape:window-y="0"
     pagecolor="#ffffff"
     inkscape:zoom="8"
     inkscape:pageshadow="2"
     borderlayer="true"
     borderopacity="1.0"
     inkscape:current-layer="layer1"
     inkscape:cx="17.346818"
     inkscape:cy="13.164655"
     inkscape:window-width="1278"
     showborder="true"
     inkscape:pageopacity="0.0"
     inkscape:window-height="968"
     inkscape:document-units="px"
     showgrid="false"
     inkscape:window-maximized="0"
     fit-margin-top="0"
     fit-margin-left="0"
     fit-margin-right="0"
     fit-margin-bottom="0" />
  <g
     id="layer1"
     inkscape:label="Layer 1"
     inkscape:groupmode="layer"
     transform="translate(-215.5431,9.9766506)">
    <g
       id="g4506">
      <circle
         r="13.966679"
         cy="378.05789"
         cx="325.57108"
         transform="matrix(1.8961,0,0,1.8961,-375.29,-700.33)"
         style="color:#000000;fill:#166496"
         id="path5190" />
      <circle
         transform="matrix(1.7312,0,0,1.7312,-321.61,-638)"
         r="13.966679"
         cy="378.05789"
         cx="325.57108"
         style="color:#000000;fill:url(#linearGradient5590);stroke:#ffffff;stroke-width:0.72205001"
         id="path5192" />
      <path
         inkscape:connector-curvature="0"
         d="m 241.99,-7.6747 c -13.34,0 -24.17,10.828 -24.17,24.175 0,6.413 2.62,12.143 6.7,16.472 2.11,-17.5 16.88,-31.107 34.95,-31.107 0.49,-2e-4 0.94,0.0988 1.43,0.1183 -4.43,-5.7506 -11.1,-9.658 -18.91,-9.658 z"
         style="color:#000000;fill:url(#linearGradient6033)"
         id="path5194" />
      <circle
         r="19.827145"
         cy="16.550289"
         cx="242.10561"
         id="path4283"
         style="color:#000000;clip-rule:nonzero;display:inline;overflow:visible;visibility:visible;opacity:1;isolation:auto;mix-blend-mode:normal;color-interpolation:sRGB;color-interpolation-filters:linearRGB;solid-color:#000000;solid-opacity:1;fill:#ffffff;fill-opacity:1;fill-rule:nonzero;stroke:#ffffff;stroke-width:7.97071123;stroke-linecap:butt;stroke-linejoin:miter;stroke-miterlimit:4;stroke-dasharray:none;stroke-dashoffset:0;stroke-opacity:1;color-rendering:auto;image-rendering:auto;shape-rendering:auto;text-rendering:auto;enable-background:accumulate" />
      <g
         transform="translate(0,-1.25)"
         id="g4387">
        <g
           id="g2998"
           transform="matrix(0.40007989,0,0,0.40007989,288.48816,-5.197672)"
           inkscape:export-xdpi="268.41293"
           inkscape:export-ydpi="268.41293" />
        <g
           id="g3000"
           transform="matrix(0.40007989,0,0,0.40007989,288.48816,-5.197672)"
           inkscape:export-xdpi="268.41293"
           inkscape:export-ydpi="268.41293" />
        <g
           id="g3002"
           transform="matrix(0.40007989,0,0,0.40007989,288.48816,-5.197672)"
           inkscape:export-xdpi="268.41293"
           inkscape:export-ydpi="268.41293" />
        <g
           id="g3004"
           transform="matrix(0.40007989,0,0,0.40007989,288.48816,-5.197672)"
           inkscape:export-xdpi="268.41293"
           inkscape:export-ydpi="268.41293" />
        <g
           id="g3006"
           transform="matrix(0.40007989,0,0,0.40007989,288.48816,-5.197672)"
           inkscape:export-xdpi="268.41293"
           inkscape:export-ydpi="268.41293" />
        <g
           id="g3008"
           transform="matrix(0.40007989,0,0,0.40007989,288.48816,-5.197672)"
           inkscape:export-xdpi="268.41293"
           inkscape:export-ydpi="268.41293" />
        <g
           id="g3010"
           transform="matrix(0.40007989,0,0,0.40007989,288.48816,-5.197672)"
           inkscape:export-xdpi="268.41293"
           inkscape:export-ydpi="268.41293" />
        <g
           id="g3012"
           transform="matrix(0.40007989,0,0,0.40007989,288.48816,-5.197672)"
           inkscape:export-xdpi="268.41293"
           inkscape:export-ydpi="268.41293" />
        <g
           id="g3014"
           transform="matrix(0.40007989,0,0,0.40007989,288.48816,-5.197672)"
           inkscape:export-xdpi="268.41293"
           inkscape:export-ydpi="268.41293" />
        <g
           id="g3016"
           transform="matrix(0.40007989,0,0,0.40007989,288.48816,-5.197672)"
           inkscape:export-xdpi="268.41293"
           inkscape:export-ydpi="268.41293" />
        <g
           id="g3018"
           transform="matrix(0.40007989,0,0,0.40007989,288.48816,-5.197672)"
           inkscape:export-xdpi="268.41293"
           inkscape:export-ydpi="268.41293" />
        <g
           id="g3020"
           transform="matrix(0.40007989,0,0,0.40007989,288.48816,-5.197672)"
           inkscape:export-xdpi="268.41293"
           inkscape:export-ydpi="268.41293" />
        <g
           id="g3022"
           transform="matrix(0.40007989,0,0,0.40007989,288.48816,-5.197672)"
           inkscape:export-xdpi="268.41293"
           inkscape:export-ydpi="268.41293" />
        <g
           id="g3024"
           transform="matrix(0.40007989,0,0,0.40007989,288.48816,-5.197672)"
           inkscape:export-xdpi="268.41293"
           inkscape:export-ydpi="268.41293" />
        <g
           id="g3026"
           transform="matrix(0.40007989,0,0,0.40007989,288.48816,-5.197672)"
           inkscape:export-xdpi="268.41293"
           inkscape:export-ydpi="268.41293" />
        <text
           xml:space="preserve"
           style="font-style:normal;font-weight:normal;font-size:16.99501419px;line-height:125%;font-family:Sans;letter-spacing:0px;word-spacing:0px;fill:#000000;fill-opacity:1;stroke:none"
           x="208.66054"
           y="16.912708"
           id="text3150"
           sodipodi:linespacing="125%"
           transform="scale(1.0619762,0.94164069)"
           inkscape:export-xdpi="268.41293"
           inkscape:export-ydpi="268.41293"><tspan
             sodipodi:role="line"
             id="tspan3152"
             x="208.66054"
             y="16.912708"
             style="font-style:normal;font-variant:normal;font-weight:bold;font-stretch:normal;font-family:Impact;-inkscape-font-specification:'Impact Bold'">ALS</tspan></text>
        <text
           xml:space="preserve"
           style="font-style:normal;font-weight:normal;font-size:16.00319481px;line-height:125%;font-family:Sans;letter-spacing:0px;word-spacing:0px;fill:#000000;fill-opacity:1;stroke:none"
           x="220.57016"
           y="30.297081"
           id="text3240"
           sodipodi:linespacing="125%"
           inkscape:export-xdpi="268.41293"
           inkscape:export-ydpi="268.41293"><tspan
             sodipodi:role="line"
             id="tspan3242"
             x="220.57016"
             y="30.297081"
             style="font-style:normal;font-variant:normal;font-weight:normal;font-stretch:normal;font-family:DIN-Bold;-inkscape-font-specification:DIN-Bold"
             dx="0">rm</tspan></text>
        <path
           style="fill:none;stroke:#000000;stroke-width:1.60031962;stroke-linecap:butt;stroke-linejoin:miter;stroke-miterlimit:4;stroke-dasharray:1.60031954, 1.60031954;stroke-dashoffset:0;stroke-opacity:1"
           d="m 221.67698,18.292717 21.43284,0"
           id="path3250"
           inkscape:connector-curvature="0"
           inkscape:export-xdpi="268.41293"
           inkscape:export-ydpi="268.41293" />
        <g
           id="g4245"
           transform="matrix(0.27836799,0,0,0.28001154,243.95114,-157.66292)">
          <g
             id="g4263"
             transform="matrix(0.5,0,0,0.5,-13.667859,323.94294)">
            <rect
               id="rect3861"
               style="fill:#666666;fill-opacity:1"
               ry="27.125999"
               height="171.82001"
               width="109.67"
               y="536.52002"
               x="55.007999"
               inkscape:export-xdpi="268"
               inkscape:export-ydpi="268" />
            <rect
               id="rect3774"
               style="fill:#ffffff;stroke:#4d4d4d;stroke-width:0.91395003"
               height="124.3"
               width="87.738998"
               y="560.46002"
               x="65.988998" />
            <rect
               id="rect3776"
               style="fill:#ffffff;stroke:#4d4d4d;stroke-width:0.36557999;stroke-linecap:round;stroke-linejoin:round"
               height="3.6558001"
               width="36.557999"
               y="547.59998"
               x="91.513" />
            <path
               id="path3859"
               sodipodi:rx="3.6263971"
               sodipodi:ry="3.7774971"
               style="fill:#ffffff"
               sodipodi:type="arc"
               d="m 228.76521,609.48843 a 3.6263971,3.7774971 0 0 1 3.62616,3.73373 3.6263971,3.7774971 0 0 1 -3.54213,3.82025 3.6263971,3.7774971 0 0 1 -3.70823,-3.6452 3.6263971,3.7774971 0 0 1 3.45619,-3.90472"
               sodipodi:open="true"
               transform="matrix(2.0162,0,0,1.9356,-351.38,-490.64)"
               sodipodi:cy="613.26593"
               sodipodi:cx="228.76521"
               sodipodi:end="4.6660407"
               sodipodi:start="4.712389" />
          </g>
        </g>
        <g
           id="g3100"
           transform="matrix(0.40007989,0,0,0.40007989,244.79608,8.7480845)"
           inkscape:export-xdpi="268.41293"
           inkscape:export-ydpi="268.41293">
          <g
             id="g3058">
            <g
               id="g3060">
              <path
                 id="path3062"
                 d="m 24.104,41.577 c -0.025,0 -0.053,-10e-4 -0.078,-10e-4 -1.093,-0.035 -2.025,-0.802 -2.271,-1.867 l -5.46,-23.659 -3.199,8.316 c -0.357,0.93 -1.252,1.544 -2.249,1.544 l -8.437,0 C 1.079,25.91 0,24.831 0,23.5 0,22.169 1.079,21.09 2.41,21.09 l 6.78,0 5.433,-14.122 c 0.38,-0.989 1.351,-1.612 2.418,-1.54 1.057,0.074 1.941,0.831 2.18,1.863 l 5.186,22.474 4.618,-15.394 c 0.276,-0.923 1.078,-1.592 2.035,-1.702 0.953,-0.107 1.889,0.36 2.365,1.198 l 4.127,7.222 7.037,0 c 1.331,0 2.41,1.079 2.41,2.41 0,1.331 -1.079,2.41 -2.41,2.41 l -8.436,0 c -0.865,0 -1.666,-0.463 -2.094,-1.214 L 32.026,21.136 26.41,39.858 c -0.306,1.022 -1.246,1.719 -2.306,1.719 z"
                 inkscape:connector-curvature="0" />
            </g>
          </g>
          <g
             id="g3064" />
          <g
             id="g3066" />
          <g
             id="g3068" />
          <g
             id="g3070" />
          <g
             id="g3072" />
          <g
             id="g3074" />
          <g
             id="g3076" />
          <g
             id="g3078" />
          <g
             id="g3080" />
          <g
             id="g3082" />
          <g
             id="g3084" />
          <g
             id="g3086" />
          <g
             id="g3088" />
          <g
             id="g3090" />
          <g
             id="g3092" />
        </g>
        <g
           id="g5287"
           transform="matrix(0.40007989,0,0,0.40007989,98.752417,-215.69888)">
          <path
             inkscape:export-ydpi="268.41293"
             inkscape:export-xdpi="268.41293"
             id="path2990"
             d="m 385.82279,557.59035 1.41421,1.41422 c 1.08258,-1.06703 2.60145,-1.75716 4.24193,-1.75716 1.64049,0 3.15936,0.69013 4.24335,1.75716 l 1.41421,-1.41422 c -1.44603,-1.42906 -3.4634,-2.34335 -5.65756,-2.34264 -2.19344,0 -4.21153,0.91358 -5.65614,2.34264 z"
             style="fill:#007cc3;fill-opacity:1"
             inkscape:connector-curvature="0" />
          <path
             inkscape:export-ydpi="268.41293"
             inkscape:export-xdpi="268.41293"
             id="path2992"
             d="m 382.99436,554.76193 1.41421,1.41421 c 1.80595,-1.79039 4.32467,-2.92884 7.07036,-2.92813 2.74428,-7.1e-4 5.26371,1.13703 7.07178,2.92813 l 1.41421,-1.41421 c -2.1694,-2.15244 -5.18875,-3.51432 -8.48669,-3.51432 -3.29795,0 -6.31588,1.36188 -8.48387,3.51432 z"
             style="fill:#007cc3;fill-opacity:1"
             inkscape:connector-curvature="0" />
          <path
             inkscape:export-ydpi="268.41293"
             inkscape:export-xdpi="268.41293"
             id="path2994"
             d="m 391.47823,547.24821 c -4.4173,-7.1e-4 -8.41599,1.78898 -11.3123,4.68529 l 1.41422,1.41421 c 2.53144,-2.51447 6.04859,-4.03758 9.89878,-4.03828 3.85091,0 7.36876,1.52381 9.9002,4.03828 l 1.41422,-1.41421 c -2.89631,-2.89631 -6.89571,-4.6867 -11.31512,-4.68529 z"
             style="fill:#007cc3;fill-opacity:1"
             inkscape:connector-curvature="0" />
        </g>
      </g>
    </g>
  </g>
  <metadata
     id="metadata19">
    <rdf:RDF>
      <cc:Work>
        <dc:format>image/svg+xml</dc:format>
        <dc:type
           rdf:resource="http://purl.org/dc/dcmitype/StillImage" />
        <cc:license
           rdf:resource="http://creativecommons.org/publicdomain/zero/1.0/" />
        <dc:publisher>
          <cc:Agent
             rdf:about="http://openclipart.org/">
            <dc:title>Openclipart</dc:title>
          </cc:Agent>
        </dc:publisher>
        <dc:title></dc:title>
        <dc:date>2006-12-21T11:14:06</dc:date>
        <dc:description>Four set of arrow buttons. In green, red, blue and yellow color.</dc:description>
        <dc:source>https://openclipart.org/detail/2209/arrow_button_set-by-kuba-2209</dc:source>
        <dc:creator>
          <cc:Agent>
            <dc:title>kuba</dc:title>
          </cc:Agent>
        </dc:creator>
        <dc:subject>
          <rdf:Bag>
            <rdf:li>arrow</rdf:li>
            <rdf:li>blue</rdf:li>
            <rdf:li>button</rdf:li>
            <rdf:li>green</rdf:li>
            <rdf:li>icon</rdf:li>
            <rdf:li>red</rdf:li>
            <rdf:li>yellow</rdf:li>
          </rdf:Bag>
        </dc:subject>
      </cc:Work>
      <cc:License
         rdf:about="http://creativecommons.org/publicdomain/zero/1.0/">
        <cc:permits
           rdf:resource="http://creativecommons.org/ns#Reproduction" />
        <cc:permits
           rdf:resource="http://creativecommons.org/ns#Distribution" />
        <cc:permits
           rdf:resource="http://creativecommons.org/ns#DerivativeWorks" />
      </cc:License>
    </rdf:RDF>
  </metadata>
</svg>
